  0
SECTION
  2
HEADER
  9
$ACADVER
  1
AC1009
  0
ENDSEC
  0
SECTION
  2
ENTITIES
  0
POLYLINE
  8
ROGERS RT-DUROID 6010LM (LOSSY)
 66
1
 39
0
 10
0.000000
 20
0.000000
 30
27.050000
 70
1
  0
VERTEX
  8
ROGERS RT-DUROID 6010LM (LOSSY)
 39
0
 10
-21.000000
 20
-8.750000
 30
0.000000
 70
0
 42
0
  0
VERTEX
  8
ROGERS RT-DUROID 6010LM (LOSSY)
 39
0
 10
21.000000
 20
-8.750000
 30
0.000000
 70
0
 42
0
  0
VERTEX
  8
ROGERS RT-DUROID 6010LM (LOSSY)
 39
0
 10
21.000000
 20
-8.750000
 30
0.000000
 70
0
 42
0
  0
VERTEX
  8
ROGERS RT-DUROID 6010LM (LOSSY)
 39
0
 10
21.000000
 20
29.750000
 30
0.000000
 70
0
 42
0
  0
VERTEX
  8
ROGERS RT-DUROID 6010LM (LOSSY)
 39
0
 10
21.000000
 20
29.750000
 30
0.000000
 70
0
 42
0
  0
VERTEX
  8
ROGERS RT-DUROID 6010LM (LOSSY)
 39
0
 10
-21.000000
 20
29.750000
 30
0.000000
 70
0
 42
0
  0
VERTEX
  8
ROGERS RT-DUROID 6010LM (LOSSY)
 39
0
 10
-21.000000
 20
29.750000
 30
0.000000
 70
0
 42
0
  0
VERTEX
  8
ROGERS RT-DUROID 6010LM (LOSSY)
 39
0
 10
-21.000000
 20
-8.750000
 30
0.000000
 70
0
 42
0
  0
SEQEND
  8
ROGERS RT-DUROID 6010LM (LOSSY)
  0
POLYLINE
  8
PEC
 66
1
 39
0
 10
0.000000
 20
0.000000
 30
27.050000
 70
1
  0
VERTEX
  8
PEC
 39
0
 10
21.000000
 20
-8.750000
 30
0.000000
 70
0
 42
0
  0
VERTEX
  8
PEC
 39
0
 10
21.000000
 20
-2.481818
 30
0.000000
 70
0
 42
0
  0
VERTEX
  8
PEC
 39
0
 10
21.000000
 20
-2.481818
 30
0.000000
 70
0
 42
0
  0
VERTEX
  8
PEC
 39
0
 10
19.581299
 20
-2.481818
 30
0.000000
 70
0
 42
0
  0
VERTEX
  8
PEC
 39
0
 10
19.581299
 20
-2.481818
 30
0.000000
 70
0
 42
0
  0
VERTEX
  8
PEC
 39
0
 10
17.747415
 20
-0.954545
 30
0.000000
 70
0
 42
0
  0
VERTEX
  8
PEC
 39
0
 10
17.747415
 20
-0.954545
 30
0.000000
 70
0
 42
0
  0
VERTEX
  8
PEC
 39
0
 10
21.000000
 20
-0.954545
 30
0.000000
 70
0
 42
0
  0
VERTEX
  8
PEC
 39
0
 10
21.000000
 20
-0.954545
 30
0.000000
 70
0
 42
0
  0
VERTEX
  8
PEC
 39
0
 10
21.000000
 20
3.627273
 30
0.000000
 70
0
 42
0
  0
VERTEX
  8
PEC
 39
0
 10
21.000000
 20
3.627273
 30
0.000000
 70
0
 42
0
  0
VERTEX
  8
PEC
 39
0
 10
12.245762
 20
3.627273
 30
0.000000
 70
0
 42
0
  0
VERTEX
  8
PEC
 39
0
 10
12.245762
 20
3.627273
 30
0.000000
 70
0
 42
0
  0
VERTEX
  8
PEC
 39
0
 10
10.411878
 20
5.154545
 30
0.000000
 70
0
 42
0
  0
VERTEX
  8
PEC
 39
0
 10
10.411878
 20
5.154545
 30
0.000000
 70
0
 42
0
  0
VERTEX
  8
PEC
 39
0
 10
21.000000
 20
5.154545
 30
0.000000
 70
0
 42
0
  0
VERTEX
  8
PEC
 39
0
 10
21.000000
 20
5.154545
 30
0.000000
 70
0
 42
0
  0
VERTEX
  8
PEC
 39
0
 10
21.000000
 20
9.736364
 30
0.000000
 70
0
 42
0
  0
VERTEX
  8
PEC
 39
0
 10
21.000000
 20
9.736364
 30
0.000000
 70
0
 42
0
  0
VERTEX
  8
PEC
 39
0
 10
4.910225
 20
9.736364
 30
0.000000
 70
0
 42
0
  0
VERTEX
  8
PEC
 39
0
 10
4.910225
 20
9.736364
 30
0.000000
 70
0
 42
0
  0
VERTEX
  8
PEC
 39
0
 10
4.174931
 20
10.348722
 30
0.000000
 70
0
 42
0
  0
VERTEX
  8
PEC
 39
0
 10
4.174931
 20
10.348722
 30
0.000000
 70
0
 42
0
  0
VERTEX
  8
PEC
 39
0
 10
4.174931
 20
10.651278
 30
0.000000
 70
0
 42
0
  0
VERTEX
  8
PEC
 39
0
 10
4.174931
 20
10.651278
 30
0.000000
 70
0
 42
0
  0
VERTEX
  8
PEC
 39
0
 10
4.910225
 20
11.263636
 30
0.000000
 70
0
 42
0
  0
VERTEX
  8
PEC
 39
0
 10
4.910225
 20
11.263636
 30
0.000000
 70
0
 42
0
  0
VERTEX
  8
PEC
 39
0
 10
21.000000
 20
11.263636
 30
0.000000
 70
0
 42
0
  0
VERTEX
  8
PEC
 39
0
 10
21.000000
 20
11.263636
 30
0.000000
 70
0
 42
0
  0
VERTEX
  8
PEC
 39
0
 10
21.000000
 20
15.845455
 30
0.000000
 70
0
 42
0
  0
VERTEX
  8
PEC
 39
0
 10
21.000000
 20
15.845455
 30
0.000000
 70
0
 42
0
  0
VERTEX
  8
PEC
 39
0
 10
10.411878
 20
15.845455
 30
0.000000
 70
0
 42
0
  0
VERTEX
  8
PEC
 39
0
 10
10.411878
 20
15.845455
 30
0.000000
 70
0
 42
0
  0
VERTEX
  8
PEC
 39
0
 10
12.245762
 20
17.372727
 30
0.000000
 70
0
 42
0
  0
VERTEX
  8
PEC
 39
0
 10
12.245762
 20
17.372727
 30
0.000000
 70
0
 42
0
  0
VERTEX
  8
PEC
 39
0
 10
21.000000
 20
17.372727
 30
0.000000
 70
0
 42
0
  0
VERTEX
  8
PEC
 39
0
 10
21.000000
 20
17.372727
 30
0.000000
 70
0
 42
0
  0
VERTEX
  8
PEC
 39
0
 10
21.000000
 20
21.954545
 30
0.000000
 70
0
 42
0
  0
VERTEX
  8
PEC
 39
0
 10
21.000000
 20
21.954545
 30
0.000000
 70
0
 42
0
  0
VERTEX
  8
PEC
 39
0
 10
17.747415
 20
21.954545
 30
0.000000
 70
0
 42
0
  0
VERTEX
  8
PEC
 39
0
 10
17.747415
 20
21.954545
 30
0.000000
 70
0
 42
0
  0
VERTEX
  8
PEC
 39
0
 10
19.581299
 20
23.481818
 30
0.000000
 70
0
 42
0
  0
VERTEX
  8
PEC
 39
0
 10
19.581299
 20
23.481818
 30
0.000000
 70
0
 42
0
  0
VERTEX
  8
PEC
 39
0
 10
21.000000
 20
23.481818
 30
0.000000
 70
0
 42
0
  0
VERTEX
  8
PEC
 39
0
 10
21.000000
 20
23.481818
 30
0.000000
 70
0
 42
0
  0
VERTEX
  8
PEC
 39
0
 10
21.000000
 20
29.750000
 30
0.000000
 70
0
 42
0
  0
VERTEX
  8
PEC
 39
0
 10
21.000000
 20
29.750000
 30
0.000000
 70
0
 42
0
  0
VERTEX
  8
PEC
 39
0
 10
-21.000000
 20
29.750000
 30
0.000000
 70
0
 42
0
  0
VERTEX
  8
PEC
 39
0
 10
-21.000000
 20
29.750000
 30
0.000000
 70
0
 42
0
  0
VERTEX
  8
PEC
 39
0
 10
-21.000000
 20
23.481818
 30
0.000000
 70
0
 42
0
  0
VERTEX
  8
PEC
 39
0
 10
-21.000000
 20
23.481818
 30
0.000000
 70
0
 42
0
  0
VERTEX
  8
PEC
 39
0
 10
-19.581299
 20
23.481818
 30
0.000000
 70
0
 42
0
  0
VERTEX
  8
PEC
 39
0
 10
-19.581299
 20
23.481818
 30
0.000000
 70
0
 42
0
  0
VERTEX
  8
PEC
 39
0
 10
-17.747415
 20
21.954545
 30
0.000000
 70
0
 42
0
  0
VERTEX
  8
PEC
 39
0
 10
-17.747415
 20
21.954545
 30
0.000000
 70
0
 42
0
  0
VERTEX
  8
PEC
 39
0
 10
-21.000000
 20
21.954545
 30
0.000000
 70
0
 42
0
  0
VERTEX
  8
PEC
 39
0
 10
-21.000000
 20
21.954545
 30
0.000000
 70
0
 42
0
  0
VERTEX
  8
PEC
 39
0
 10
-21.000000
 20
17.372727
 30
0.000000
 70
0
 42
0
  0
VERTEX
  8
PEC
 39
0
 10
-21.000000
 20
17.372727
 30
0.000000
 70
0
 42
0
  0
VERTEX
  8
PEC
 39
0
 10
-12.245762
 20
17.372727
 30
0.000000
 70
0
 42
0
  0
VERTEX
  8
PEC
 39
0
 10
-12.245762
 20
17.372727
 30
0.000000
 70
0
 42
0
  0
VERTEX
  8
PEC
 39
0
 10
-10.411878
 20
15.845455
 30
0.000000
 70
0
 42
0
  0
VERTEX
  8
PEC
 39
0
 10
-10.411878
 20
15.845455
 30
0.000000
 70
0
 42
0
  0
VERTEX
  8
PEC
 39
0
 10
-21.000000
 20
15.845455
 30
0.000000
 70
0
 42
0
  0
VERTEX
  8
PEC
 39
0
 10
-21.000000
 20
15.845455
 30
0.000000
 70
0
 42
0
  0
VERTEX
  8
PEC
 39
0
 10
-21.000000
 20
11.263636
 30
0.000000
 70
0
 42
0
  0
VERTEX
  8
PEC
 39
0
 10
-21.000000
 20
11.263636
 30
0.000000
 70
0
 42
0
  0
VERTEX
  8
PEC
 39
0
 10
-4.910225
 20
11.263636
 30
0.000000
 70
0
 42
0
  0
VERTEX
  8
PEC
 39
0
 10
-4.910225
 20
11.263636
 30
0.000000
 70
0
 42
0
  0
VERTEX
  8
PEC
 39
0
 10
-4.174931
 20
10.651278
 30
0.000000
 70
0
 42
0
  0
VERTEX
  8
PEC
 39
0
 10
-4.174931
 20
10.651278
 30
0.000000
 70
0
 42
0
  0
VERTEX
  8
PEC
 39
0
 10
-4.174931
 20
10.348722
 30
0.000000
 70
0
 42
0
  0
VERTEX
  8
PEC
 39
0
 10
-4.174931
 20
10.348722
 30
0.000000
 70
0
 42
0
  0
VERTEX
  8
PEC
 39
0
 10
-4.910225
 20
9.736364
 30
0.000000
 70
0
 42
0
  0
VERTEX
  8
PEC
 39
0
 10
-4.910225
 20
9.736364
 30
0.000000
 70
0
 42
0
  0
VERTEX
  8
PEC
 39
0
 10
-21.000000
 20
9.736364
 30
0.000000
 70
0
 42
0
  0
VERTEX
  8
PEC
 39
0
 10
-21.000000
 20
9.736364
 30
0.000000
 70
0
 42
0
  0
VERTEX
  8
PEC
 39
0
 10
-21.000000
 20
5.154545
 30
0.000000
 70
0
 42
0
  0
VERTEX
  8
PEC
 39
0
 10
-21.000000
 20
5.154545
 30
0.000000
 70
0
 42
0
  0
VERTEX
  8
PEC
 39
0
 10
-10.411878
 20
5.154545
 30
0.000000
 70
0
 42
0
  0
VERTEX
  8
PEC
 39
0
 10
-10.411878
 20
5.154545
 30
0.000000
 70
0
 42
0
  0
VERTEX
  8
PEC
 39
0
 10
-12.245762
 20
3.627273
 30
0.000000
 70
0
 42
0
  0
VERTEX
  8
PEC
 39
0
 10
-12.245762
 20
3.627273
 30
0.000000
 70
0
 42
0
  0
VERTEX
  8
PEC
 39
0
 10
-21.000000
 20
3.627273
 30
0.000000
 70
0
 42
0
  0
VERTEX
  8
PEC
 39
0
 10
-21.000000
 20
3.627273
 30
0.000000
 70
0
 42
0
  0
VERTEX
  8
PEC
 39
0
 10
-21.000000
 20
-0.954545
 30
0.000000
 70
0
 42
0
  0
VERTEX
  8
PEC
 39
0
 10
-21.000000
 20
-0.954545
 30
0.000000
 70
0
 42
0
  0
VERTEX
  8
PEC
 39
0
 10
-17.747415
 20
-0.954545
 30
0.000000
 70
0
 42
0
  0
VERTEX
  8
PEC
 39
0
 10
-17.747415
 20
-0.954545
 30
0.000000
 70
0
 42
0
  0
VERTEX
  8
PEC
 39
0
 10
-19.581299
 20
-2.481818
 30
0.000000
 70
0
 42
0
  0
VERTEX
  8
PEC
 39
0
 10
-19.581299
 20
-2.481818
 30
0.000000
 70
0
 42
0
  0
VERTEX
  8
PEC
 39
0
 10
-21.000000
 20
-2.481818
 30
0.000000
 70
0
 42
0
  0
VERTEX
  8
PEC
 39
0
 10
-21.000000
 20
-2.481818
 30
0.000000
 70
0
 42
0
  0
VERTEX
  8
PEC
 39
0
 10
-21.000000
 20
-8.750000
 30
0.000000
 70
0
 42
0
  0
VERTEX
  8
PEC
 39
0
 10
-21.000000
 20
-8.750000
 30
0.000000
 70
0
 42
0
  0
VERTEX
  8
PEC
 39
0
 10
21.000000
 20
-8.750000
 30
0.000000
 70
0
 42
0
  0
SEQEND
  8
PEC
  0
POLYLINE
  8
PEC
 66
1
 39
0
 10
0.000000
 20
0.000000
 30
27.050000
 70
1
  0
VERTEX
  8
PEC
 39
0
 10
19.472727
 20
-4.009091
 30
0.000000
 70
0
 42
0
  0
VERTEX
  8
PEC
 39
0
 10
19.472727
 20
-6.300000
 30
0.000000
 70
0
 42
0
  0
VERTEX
  8
PEC
 39
0
 10
19.472727
 20
-6.300000
 30
0.000000
 70
0
 42
0
  0
VERTEX
  8
PEC
 39
0
 10
0.892500
 20
9.173754
 30
0.000000
 70
0
 42
0
  0
VERTEX
  8
PEC
 39
0
 10
0.892500
 20
9.173754
 30
0.000000
 70
0
 42
0
  0
VERTEX
  8
PEC
 39
0
 10
0.892500
 20
0.857500
 30
0.000000
 70
0
 42
0
  0
VERTEX
  8
PEC
 39
0
 10
0.892500
 20
0.857500
 30
0.000000
 70
0
 42
0
  0
VERTEX
  8
PEC
 39
0
 10
-0.892500
 20
0.857500
 30
0.000000
 70
0
 42
0
  0
VERTEX
  8
PEC
 39
0
 10
-0.892500
 20
0.857500
 30
0.000000
 70
0
 42
0
  0
VERTEX
  8
PEC
 39
0
 10
-0.892500
 20
9.173754
 30
0.000000
 70
0
 42
0
  0
VERTEX
  8
PEC
 39
0
 10
-0.892500
 20
9.173754
 30
0.000000
 70
0
 42
0
  0
VERTEX
  8
PEC
 39
0
 10
-19.472727
 20
-6.300000
 30
0.000000
 70
0
 42
0
  0
VERTEX
  8
PEC
 39
0
 10
-19.472727
 20
-6.300000
 30
0.000000
 70
0
 42
0
  0
VERTEX
  8
PEC
 39
0
 10
-19.472727
 20
-4.009091
 30
0.000000
 70
0
 42
0
  0
VERTEX
  8
PEC
 39
0
 10
-19.472727
 20
-4.009091
 30
0.000000
 70
0
 42
0
  0
VERTEX
  8
PEC
 39
0
 10
-19.028618
 20
-4.009091
 30
0.000000
 70
0
 42
0
  0
VERTEX
  8
PEC
 39
0
 10
-19.028618
 20
-4.009091
 30
0.000000
 70
0
 42
0
  0
VERTEX
  8
PEC
 39
0
 10
-13.526965
 20
0.572727
 30
0.000000
 70
0
 42
0
  0
VERTEX
  8
PEC
 39
0
 10
-13.526965
 20
0.572727
 30
0.000000
 70
0
 42
0
  0
VERTEX
  8
PEC
 39
0
 10
-19.472727
 20
0.572727
 30
0.000000
 70
0
 42
0
  0
VERTEX
  8
PEC
 39
0
 10
-19.472727
 20
0.572727
 30
0.000000
 70
0
 42
0
  0
VERTEX
  8
PEC
 39
0
 10
-19.472727
 20
2.100000
 30
0.000000
 70
0
 42
0
  0
VERTEX
  8
PEC
 39
0
 10
-19.472727
 20
2.100000
 30
0.000000
 70
0
 42
0
  0
VERTEX
  8
PEC
 39
0
 10
-11.693081
 20
2.100000
 30
0.000000
 70
0
 42
0
  0
VERTEX
  8
PEC
 39
0
 10
-11.693081
 20
2.100000
 30
0.000000
 70
0
 42
0
  0
VERTEX
  8
PEC
 39
0
 10
-6.191428
 20
6.681818
 30
0.000000
 70
0
 42
0
  0
VERTEX
  8
PEC
 39
0
 10
-6.191428
 20
6.681818
 30
0.000000
 70
0
 42
0
  0
VERTEX
  8
PEC
 39
0
 10
-19.472727
 20
6.681818
 30
0.000000
 70
0
 42
0
  0
VERTEX
  8
PEC
 39
0
 10
-19.472727
 20
6.681818
 30
0.000000
 70
0
 42
0
  0
VERTEX
  8
PEC
 39
0
 10
-19.472727
 20
8.209091
 30
0.000000
 70
0
 42
0
  0
VERTEX
  8
PEC
 39
0
 10
-19.472727
 20
8.209091
 30
0.000000
 70
0
 42
0
  0
VERTEX
  8
PEC
 39
0
 10
-4.357544
 20
8.209091
 30
0.000000
 70
0
 42
0
  0
VERTEX
  8
PEC
 39
0
 10
-4.357544
 20
8.209091
 30
0.000000
 70
0
 42
0
  0
VERTEX
  8
PEC
 39
0
 10
-2.647658
 20
9.633096
 30
0.000000
 70
0
 42
0
  0
VERTEX
  8
PEC
 39
0
 10
-2.647658
 20
9.633096
 30
0.000000
 70
0
 42
0
  0
VERTEX
  8
PEC
 39
0
 10
-2.647658
 20
11.366904
 30
0.000000
 70
0
 42
0
  0
VERTEX
  8
PEC
 39
0
 10
-2.647658
 20
11.366904
 30
0.000000
 70
0
 42
0
  0
VERTEX
  8
PEC
 39
0
 10
-4.357544
 20
12.790909
 30
0.000000
 70
0
 42
0
  0
VERTEX
  8
PEC
 39
0
 10
-4.357544
 20
12.790909
 30
0.000000
 70
0
 42
0
  0
VERTEX
  8
PEC
 39
0
 10
-19.472727
 20
12.790909
 30
0.000000
 70
0
 42
0
  0
VERTEX
  8
PEC
 39
0
 10
-19.472727
 20
12.790909
 30
0.000000
 70
0
 42
0
  0
VERTEX
  8
PEC
 39
0
 10
-19.472727
 20
14.318182
 30
0.000000
 70
0
 42
0
  0
VERTEX
  8
PEC
 39
0
 10
-19.472727
 20
14.318182
 30
0.000000
 70
0
 42
0
  0
VERTEX
  8
PEC
 39
0
 10
-6.191428
 20
14.318182
 30
0.000000
 70
0
 42
0
  0
VERTEX
  8
PEC
 39
0
 10
-6.191428
 20
14.318182
 30
0.000000
 70
0
 42
0
  0
VERTEX
  8
PEC
 39
0
 10
-11.693081
 20
18.900000
 30
0.000000
 70
0
 42
0
  0
VERTEX
  8
PEC
 39
0
 10
-11.693081
 20
18.900000
 30
0.000000
 70
0
 42
0
  0
VERTEX
  8
PEC
 39
0
 10
-19.472727
 20
18.900000
 30
0.000000
 70
0
 42
0
  0
VERTEX
  8
PEC
 39
0
 10
-19.472727
 20
18.900000
 30
0.000000
 70
0
 42
0
  0
VERTEX
  8
PEC
 39
0
 10
-19.472727
 20
20.427273
 30
0.000000
 70
0
 42
0
  0
VERTEX
  8
PEC
 39
0
 10
-19.472727
 20
20.427273
 30
0.000000
 70
0
 42
0
  0
VERTEX
  8
PEC
 39
0
 10
-13.526965
 20
20.427273
 30
0.000000
 70
0
 42
0
  0
VERTEX
  8
PEC
 39
0
 10
-13.526965
 20
20.427273
 30
0.000000
 70
0
 42
0
  0
VERTEX
  8
PEC
 39
0
 10
-19.028618
 20
25.009091
 30
0.000000
 70
0
 42
0
  0
VERTEX
  8
PEC
 39
0
 10
-19.028618
 20
25.009091
 30
0.000000
 70
0
 42
0
  0
VERTEX
  8
PEC
 39
0
 10
-19.472727
 20
25.009091
 30
0.000000
 70
0
 42
0
  0
VERTEX
  8
PEC
 39
0
 10
-19.472727
 20
25.009091
 30
0.000000
 70
0
 42
0
  0
VERTEX
  8
PEC
 39
0
 10
-19.472727
 20
27.300000
 30
0.000000
 70
0
 42
0
  0
VERTEX
  8
PEC
 39
0
 10
-19.472727
 20
27.300000
 30
0.000000
 70
0
 42
0
  0
VERTEX
  8
PEC
 39
0
 10
-0.300000
 20
11.332808
 30
0.000000
 70
0
 42
0
  0
VERTEX
  8
PEC
 39
0
 10
-0.300000
 20
11.332808
 30
0.000000
 70
0
 42
0
  0
VERTEX
  8
PEC
 39
0
 10
-0.300000
 20
1.750000
 30
0.000000
 70
0
 42
0
  0
VERTEX
  8
PEC
 39
0
 10
-0.300000
 20
1.750000
 30
0.000000
 70
0
 42
0
  0
VERTEX
  8
PEC
 39
0
 10
0.300000
 20
1.750000
 30
0.000000
 70
0
 42
0
  0
VERTEX
  8
PEC
 39
0
 10
0.300000
 20
1.750000
 30
0.000000
 70
0
 42
0
  0
VERTEX
  8
PEC
 39
0
 10
0.300000
 20
11.332808
 30
0.000000
 70
0
 42
0
  0
VERTEX
  8
PEC
 39
0
 10
0.300000
 20
11.332808
 30
0.000000
 70
0
 42
0
  0
VERTEX
  8
PEC
 39
0
 10
19.472727
 20
27.300000
 30
0.000000
 70
0
 42
0
  0
VERTEX
  8
PEC
 39
0
 10
19.472727
 20
27.300000
 30
0.000000
 70
0
 42
0
  0
VERTEX
  8
PEC
 39
0
 10
19.472727
 20
25.009091
 30
0.000000
 70
0
 42
0
  0
VERTEX
  8
PEC
 39
0
 10
19.472727
 20
25.009091
 30
0.000000
 70
0
 42
0
  0
VERTEX
  8
PEC
 39
0
 10
19.028618
 20
25.009091
 30
0.000000
 70
0
 42
0
  0
VERTEX
  8
PEC
 39
0
 10
19.028618
 20
25.009091
 30
0.000000
 70
0
 42
0
  0
VERTEX
  8
PEC
 39
0
 10
13.526965
 20
20.427273
 30
0.000000
 70
0
 42
0
  0
VERTEX
  8
PEC
 39
0
 10
13.526965
 20
20.427273
 30
0.000000
 70
0
 42
0
  0
VERTEX
  8
PEC
 39
0
 10
19.472727
 20
20.427273
 30
0.000000
 70
0
 42
0
  0
VERTEX
  8
PEC
 39
0
 10
19.472727
 20
20.427273
 30
0.000000
 70
0
 42
0
  0
VERTEX
  8
PEC
 39
0
 10
19.472727
 20
18.900000
 30
0.000000
 70
0
 42
0
  0
VERTEX
  8
PEC
 39
0
 10
19.472727
 20
18.900000
 30
0.000000
 70
0
 42
0
  0
VERTEX
  8
PEC
 39
0
 10
11.693081
 20
18.900000
 30
0.000000
 70
0
 42
0
  0
VERTEX
  8
PEC
 39
0
 10
11.693081
 20
18.900000
 30
0.000000
 70
0
 42
0
  0
VERTEX
  8
PEC
 39
0
 10
6.191428
 20
14.318182
 30
0.000000
 70
0
 42
0
  0
VERTEX
  8
PEC
 39
0
 10
6.191428
 20
14.318182
 30
0.000000
 70
0
 42
0
  0
VERTEX
  8
PEC
 39
0
 10
19.472727
 20
14.318182
 30
0.000000
 70
0
 42
0
  0
VERTEX
  8
PEC
 39
0
 10
19.472727
 20
14.318182
 30
0.000000
 70
0
 42
0
  0
VERTEX
  8
PEC
 39
0
 10
19.472727
 20
12.790909
 30
0.000000
 70
0
 42
0
  0
VERTEX
  8
PEC
 39
0
 10
19.472727
 20
12.790909
 30
0.000000
 70
0
 42
0
  0
VERTEX
  8
PEC
 39
0
 10
4.357544
 20
12.790909
 30
0.000000
 70
0
 42
0
  0
VERTEX
  8
PEC
 39
0
 10
4.357544
 20
12.790909
 30
0.000000
 70
0
 42
0
  0
VERTEX
  8
PEC
 39
0
 10
2.647658
 20
11.366904
 30
0.000000
 70
0
 42
0
  0
VERTEX
  8
PEC
 39
0
 10
2.647658
 20
11.366904
 30
0.000000
 70
0
 42
0
  0
VERTEX
  8
PEC
 39
0
 10
2.647658
 20
9.633096
 30
0.000000
 70
0
 42
0
  0
VERTEX
  8
PEC
 39
0
 10
2.647658
 20
9.633096
 30
0.000000
 70
0
 42
0
  0
VERTEX
  8
PEC
 39
0
 10
4.357544
 20
8.209091
 30
0.000000
 70
0
 42
0
  0
VERTEX
  8
PEC
 39
0
 10
4.357544
 20
8.209091
 30
0.000000
 70
0
 42
0
  0
VERTEX
  8
PEC
 39
0
 10
19.472727
 20
8.209091
 30
0.000000
 70
0
 42
0
  0
VERTEX
  8
PEC
 39
0
 10
19.472727
 20
8.209091
 30
0.000000
 70
0
 42
0
  0
VERTEX
  8
PEC
 39
0
 10
19.472727
 20
6.681818
 30
0.000000
 70
0
 42
0
  0
VERTEX
  8
PEC
 39
0
 10
19.472727
 20
6.681818
 30
0.000000
 70
0
 42
0
  0
VERTEX
  8
PEC
 39
0
 10
6.191428
 20
6.681818
 30
0.000000
 70
0
 42
0
  0
VERTEX
  8
PEC
 39
0
 10
6.191428
 20
6.681818
 30
0.000000
 70
0
 42
0
  0
VERTEX
  8
PEC
 39
0
 10
11.693081
 20
2.100000
 30
0.000000
 70
0
 42
0
  0
VERTEX
  8
PEC
 39
0
 10
11.693081
 20
2.100000
 30
0.000000
 70
0
 42
0
  0
VERTEX
  8
PEC
 39
0
 10
19.472727
 20
2.100000
 30
0.000000
 70
0
 42
0
  0
VERTEX
  8
PEC
 39
0
 10
19.472727
 20
2.100000
 30
0.000000
 70
0
 42
0
  0
VERTEX
  8
PEC
 39
0
 10
19.472727
 20
0.572727
 30
0.000000
 70
0
 42
0
  0
VERTEX
  8
PEC
 39
0
 10
19.472727
 20
0.572727
 30
0.000000
 70
0
 42
0
  0
VERTEX
  8
PEC
 39
0
 10
13.526965
 20
0.572727
 30
0.000000
 70
0
 42
0
  0
VERTEX
  8
PEC
 39
0
 10
13.526965
 20
0.572727
 30
0.000000
 70
0
 42
0
  0
VERTEX
  8
PEC
 39
0
 10
19.028618
 20
-4.009091
 30
0.000000
 70
0
 42
0
  0
VERTEX
  8
PEC
 39
0
 10
19.028618
 20
-4.009091
 30
0.000000
 70
0
 42
0
  0
VERTEX
  8
PEC
 39
0
 10
19.472727
 20
-4.009091
 30
0.000000
 70
0
 42
0
  0
SEQEND
  8
PEC
  0
ENDSEC
  0
EOF
