  0
SECTION
  2
HEADER
  9
$ACADVER
  1
AC1009
  0
ENDSEC
  0
SECTION
  2
ENTITIES
  0
POLYLINE
  8
KAPTON
 66
1
 39
0
 10
0.000000
 20
0.000000
 30
95.100000
 70
1
  0
VERTEX
  8
KAPTON
 39
0
 10
-20.000000
 20
-13.750000
 30
0.000000
 70
0
 42
0
  0
VERTEX
  8
KAPTON
 39
0
 10
20.000000
 20
-13.750000
 30
0.000000
 70
0
 42
0
  0
VERTEX
  8
KAPTON
 39
0
 10
20.000000
 20
-13.750000
 30
0.000000
 70
0
 42
0
  0
VERTEX
  8
KAPTON
 39
0
 10
20.000000
 20
36.250000
 30
0.000000
 70
0
 42
0
  0
VERTEX
  8
KAPTON
 39
0
 10
20.000000
 20
36.250000
 30
0.000000
 70
0
 42
0
  0
VERTEX
  8
KAPTON
 39
0
 10
-20.000000
 20
36.250000
 30
0.000000
 70
0
 42
0
  0
VERTEX
  8
KAPTON
 39
0
 10
-20.000000
 20
36.250000
 30
0.000000
 70
0
 42
0
  0
VERTEX
  8
KAPTON
 39
0
 10
-20.000000
 20
-13.750000
 30
0.000000
 70
0
 42
0
  0
SEQEND
  8
KAPTON
  0
POLYLINE
  8
PEC
 66
1
 39
0
 10
0.000000
 20
0.000000
 30
95.100000
 70
0
  0
VERTEX
  8
PEC
 39
0
 10
-3.400000
 20
5.316085
 30
0.000000
 70
0
 42
0
  0
VERTEX
  8
PEC
 39
0
 10
-3.400000
 20
-3.750000
 30
0.000000
 70
0
 42
0
  0
SEQEND
  0
POLYLINE
  8
PEC
 66
1
 39
0
 10
0.000000
 20
0.000000
 30
95.100000
 70
4
 75
5
  0
VERTEX
  8
PEC
 39
0
 10
-20.000000
 20
-3.750000
 30
0.000000
 70
16
 42
0
  0
VERTEX
  8
PEC
 39
0
 10
-3.400000
 20
5.316085
 30
0.000000
 70
8
 42
0
  0
VERTEX
  8
PEC
 39
0
 10
-4.219732
 20
5.242898
 30
0.000000
 70
8
 42
0
  0
VERTEX
  8
PEC
 39
0
 10
-5.239558
 20
5.128679
 30
0.000000
 70
8
 42
0
  0
VERTEX
  8
PEC
 39
0
 10
-6.256115
 20
4.988318
 30
0.000000
 70
8
 42
0
  0
VERTEX
  8
PEC
 39
0
 10
-7.268568
 20
4.820924
 30
0.000000
 70
8
 42
0
  0
VERTEX
  8
PEC
 39
0
 10
-8.275962
 20
4.625391
 30
0.000000
 70
8
 42
0
  0
VERTEX
  8
PEC
 39
0
 10
-9.277177
 20
4.400364
 30
0.000000
 70
8
 42
0
  0
VERTEX
  8
PEC
 39
0
 10
-10.270871
 20
4.144184
 30
0.000000
 70
8
 42
0
  0
VERTEX
  8
PEC
 39
0
 10
-11.255412
 20
3.854841
 30
0.000000
 70
8
 42
0
  0
VERTEX
  8
PEC
 39
0
 10
-12.228770
 20
3.529886
 30
0.000000
 70
8
 42
0
  0
VERTEX
  8
PEC
 39
0
 10
-13.188368
 20
3.166341
 30
0.000000
 70
8
 42
0
  0
VERTEX
  8
PEC
 39
0
 10
-14.130864
 20
2.760563
 30
0.000000
 70
8
 42
0
  0
VERTEX
  8
PEC
 39
0
 10
-15.051823
 20
2.308091
 30
0.000000
 70
8
 42
0
  0
VERTEX
  8
PEC
 39
0
 10
-15.945212
 20
1.803445
 30
0.000000
 70
8
 42
0
  0
VERTEX
  8
PEC
 39
0
 10
-16.802612
 20
1.239934
 30
0.000000
 70
8
 42
0
  0
VERTEX
  8
PEC
 39
0
 10
-17.611974
 20
0.609538
 30
0.000000
 70
8
 42
0
  0
VERTEX
  8
PEC
 39
0
 10
-18.355683
 20
-0.096867
 30
0.000000
 70
8
 42
0
  0
VERTEX
  8
PEC
 39
0
 10
-19.007798
 20
-0.888237
 30
0.000000
 70
8
 42
0
  0
VERTEX
  8
PEC
 39
0
 10
-19.531108
 20
-1.769551
 30
0.000000
 70
8
 42
0
  0
VERTEX
  8
PEC
 39
0
 10
-19.877554
 20
-2.733531
 30
0.000000
 70
8
 42
0
  0
VERTEX
  8
PEC
 39
0
 10
-20.000000
 20
-3.750000
 30
0.000000
 70
8
 42
0
  0
VERTEX
  8
PEC
 39
0
 10
-20.000000
 20
3.998791
 30
0.000000
 70
16
 42
0
  0
VERTEX
  8
PEC
 39
0
 10
-3.400000
 20
5.316085
 30
0.000000
 70
16
 42
0
  0
SEQEND
  0
POLYLINE
  8
PEC
 66
1
 39
0
 10
0.000000
 20
0.000000
 30
95.100000
 70
0
  0
VERTEX
  8
PEC
 39
0
 10
-3.400000
 20
-3.750000
 30
0.000000
 70
0
 42
0
  0
VERTEX
  8
PEC
 39
0
 10
-20.000000
 20
-3.750000
 30
0.000000
 70
0
 42
0
  0
SEQEND
  0
POLYLINE
  8
PEC
 66
1
 39
0
 10
0.000000
 20
0.000000
 30
95.100000
 70
0
  0
VERTEX
  8
PEC
 39
0
 10
3.400000
 20
-3.750000
 30
0.000000
 70
0
 42
0
  0
VERTEX
  8
PEC
 39
0
 10
3.400000
 20
5.316085
 30
0.000000
 70
0
 42
0
  0
SEQEND
  0
POLYLINE
  8
PEC
 66
1
 39
0
 10
0.000000
 20
0.000000
 30
95.100000
 70
0
  0
VERTEX
  8
PEC
 39
0
 10
20.000000
 20
-3.750000
 30
0.000000
 70
0
 42
0
  0
VERTEX
  8
PEC
 39
0
 10
3.400000
 20
-3.750000
 30
0.000000
 70
0
 42
0
  0
SEQEND
  0
POLYLINE
  8
PEC
 66
1
 39
0
 10
0.000000
 20
0.000000
 30
95.100000
 70
4
 75
5
  0
VERTEX
  8
PEC
 39
0
 10
3.400000
 20
5.316085
 30
0.000000
 70
16
 42
0
  0
VERTEX
  8
PEC
 39
0
 10
20.000000
 20
-3.750000
 30
0.000000
 70
8
 42
0
  0
VERTEX
  8
PEC
 39
0
 10
19.920804
 20
-2.932082
 30
0.000000
 70
8
 42
0
  0
VERTEX
  8
PEC
 39
0
 10
19.615397
 20
-1.954456
 30
0.000000
 70
8
 42
0
  0
VERTEX
  8
PEC
 39
0
 10
19.123053
 20
-1.055607
 30
0.000000
 70
8
 42
0
  0
VERTEX
  8
PEC
 39
0
 10
18.493098
 20
-0.246583
 30
0.000000
 70
8
 42
0
  0
VERTEX
  8
PEC
 39
0
 10
17.765147
 20
0.475985
 30
0.000000
 70
8
 42
0
  0
VERTEX
  8
PEC
 39
0
 10
16.967168
 20
1.120686
 30
0.000000
 70
8
 42
0
  0
VERTEX
  8
PEC
 39
0
 10
16.118180
 20
1.696763
 30
0.000000
 70
8
 42
0
  0
VERTEX
  8
PEC
 39
0
 10
15.231156
 20
2.212492
 30
0.000000
 70
8
 42
0
  0
VERTEX
  8
PEC
 39
0
 10
14.315115
 20
2.674826
 30
0.000000
 70
8
 42
0
  0
VERTEX
  8
PEC
 39
0
 10
13.376490
 20
3.089467
 30
0.000000
 70
8
 42
0
  0
VERTEX
  8
PEC
 39
0
 10
12.419985
 20
3.461063
 30
0.000000
 70
8
 42
0
  0
VERTEX
  8
PEC
 39
0
 10
11.449126
 20
3.793404
 30
0.000000
 70
8
 42
0
  0
VERTEX
  8
PEC
 39
0
 10
10.466624
 20
4.089590
 30
0.000000
 70
8
 42
0
  0
VERTEX
  8
PEC
 39
0
 10
9.474602
 20
4.352165
 30
0.000000
 70
8
 42
0
  0
VERTEX
  8
PEC
 39
0
 10
8.474762
 20
4.583219
 30
0.000000
 70
8
 42
0
  0
VERTEX
  8
PEC
 39
0
 10
7.468496
 20
4.784476
 30
0.000000
 70
8
 42
0
  0
VERTEX
  8
PEC
 39
0
 10
6.456964
 20
4.957347
 30
0.000000
 70
8
 42
0
  0
VERTEX
  8
PEC
 39
0
 10
5.441151
 20
5.102985
 30
0.000000
 70
8
 42
0
  0
VERTEX
  8
PEC
 39
0
 10
4.421911
 20
5.222320
 30
0.000000
 70
8
 42
0
  0
VERTEX
  8
PEC
 39
0
 10
3.400000
 20
5.316085
 30
0.000000
 70
8
 42
0
  0
VERTEX
  8
PEC
 39
0
 10
20.000000
 20
3.998791
 30
0.000000
 70
16
 42
0
  0
VERTEX
  8
PEC
 39
0
 10
20.000000
 20
-3.750000
 30
0.000000
 70
16
 42
0
  0
SEQEND
  0
POLYLINE
  8
PEC
 66
1
 39
0
 10
0.000000
 20
0.000000
 30
95.100000
 70
0
  0
VERTEX
  8
PEC
 39
0
 10
-15.000000
 20
36.250000
 30
0.000000
 70
0
 42
0
  0
VERTEX
  8
PEC
 39
0
 10
15.000000
 20
36.250000
 30
0.000000
 70
0
 42
0
  0
SEQEND
  0
POLYLINE
  8
PEC
 66
1
 39
0
 10
0.000000
 20
0.000000
 30
95.100000
 70
4
 75
5
  0
VERTEX
  8
PEC
 39
0
 10
15.000000
 20
36.250000
 30
0.000000
 70
16
 42
0
  0
VERTEX
  8
PEC
 39
0
 10
-15.000000
 20
36.250000
 30
0.000000
 70
8
 42
0
  0
VERTEX
  8
PEC
 39
0
 10
-14.927881
 20
33.298665
 30
0.000000
 70
8
 42
0
  0
VERTEX
  8
PEC
 39
0
 10
-14.633488
 20
29.629488
 30
0.000000
 70
8
 42
0
  0
VERTEX
  8
PEC
 39
0
 10
-14.103199
 20
25.986999
 30
0.000000
 70
8
 42
0
  0
VERTEX
  8
PEC
 39
0
 10
-13.319310
 20
22.390708
 30
0.000000
 70
8
 42
0
  0
VERTEX
  8
PEC
 39
0
 10
-12.252943
 20
18.868131
 30
0.000000
 70
8
 42
0
  0
VERTEX
  8
PEC
 39
0
 10
-10.859220
 20
15.462384
 30
0.000000
 70
8
 42
0
  0
VERTEX
  8
PEC
 39
0
 10
-9.069371
 20
12.248485
 30
0.000000
 70
8
 42
0
  0
VERTEX
  8
PEC
 39
0
 10
-6.781245
 20
9.371794
 30
0.000000
 70
8
 42
0
  0
VERTEX
  8
PEC
 39
0
 10
-3.872270
 20
7.138051
 30
0.000000
 70
8
 42
0
  0
VERTEX
  8
PEC
 39
0
 10
-0.364385
 20
6.125559
 30
0.000000
 70
8
 42
0
  0
VERTEX
  8
PEC
 39
0
 10
3.217413
 20
6.818012
 30
0.000000
 70
8
 42
0
  0
VERTEX
  8
PEC
 39
0
 10
6.257915
 20
8.864305
 30
0.000000
 70
8
 42
0
  0
VERTEX
  8
PEC
 39
0
 10
8.659701
 20
11.645451
 30
0.000000
 70
8
 42
0
  0
VERTEX
  8
PEC
 39
0
 10
10.538944
 20
14.807460
 30
0.000000
 70
8
 42
0
  0
VERTEX
  8
PEC
 39
0
 10
12.004717
 20
18.182642
 30
0.000000
 70
8
 42
0
  0
VERTEX
  8
PEC
 39
0
 10
13.131724
 20
21.686203
 30
0.000000
 70
8
 42
0
  0
VERTEX
  8
PEC
 39
0
 10
13.968837
 20
25.270434
 30
0.000000
 70
8
 42
0
  0
VERTEX
  8
PEC
 39
0
 10
14.547635
 20
28.905507
 30
0.000000
 70
8
 42
0
  0
VERTEX
  8
PEC
 39
0
 10
14.887767
 20
32.570715
 30
0.000000
 70
8
 42
0
  0
VERTEX
  8
PEC
 39
0
 10
15.000000
 20
36.250000
 30
0.000000
 70
8
 42
0
  0
VERTEX
  8
PEC
 39
0
 10
15.000000
 20
6.116667
 30
0.000000
 70
16
 42
0
  0
VERTEX
  8
PEC
 39
0
 10
-0.000000
 20
6.116667
 30
0.000000
 70
16
 42
0
  0
VERTEX
  8
PEC
 39
0
 10
-15.000000
 20
6.116667
 30
0.000000
 70
16
 42
0
  0
VERTEX
  8
PEC
 39
0
 10
-15.000000
 20
36.250000
 30
0.000000
 70
16
 42
0
  0
SEQEND
  0
POLYLINE
  8
PEC
 66
1
 39
0
 10
0.000000
 20
0.000000
 30
95.100000
 70
1
  0
VERTEX
  8
PEC
 39
0
 10
1.000000
 20
-3.750000
 30
0.000000
 70
0
 42
0
  0
VERTEX
  8
PEC
 39
0
 10
1.000000
 20
6.250000
 30
0.000000
 70
0
 42
0
  0
VERTEX
  8
PEC
 39
0
 10
1.000000
 20
6.250000
 30
0.000000
 70
0
 42
0
  0
VERTEX
  8
PEC
 39
0
 10
-1.000000
 20
6.250000
 30
0.000000
 70
0
 42
0
  0
VERTEX
  8
PEC
 39
0
 10
-1.000000
 20
6.250000
 30
0.000000
 70
0
 42
0
  0
VERTEX
  8
PEC
 39
0
 10
-1.000000
 20
-3.750000
 30
0.000000
 70
0
 42
0
  0
VERTEX
  8
PEC
 39
0
 10
-1.000000
 20
-3.750000
 30
0.000000
 70
0
 42
0
  0
VERTEX
  8
PEC
 39
0
 10
1.000000
 20
-3.750000
 30
0.000000
 70
0
 42
0
  0
SEQEND
  8
PEC
  0
ENDSEC
  0
EOF
