  0
SECTION
  2
HEADER
  9
$ACADVER
  1
AC1009
  0
ENDSEC
  0
SECTION
  2
ENTITIES
  0
POLYLINE
  8
PEC
 66
1
 39
0
 10
0.000000
 20
0.000000
 30
0.000000
 70
1
  0
VERTEX
  8
PEC
 39
0
 10
-14.746356
 20
-12.373661
 30
0.000000
 70
0
 42
-0.00974887
  0
VERTEX
  8
PEC
 39
0
 10
-15.217525
 20
-11.789378
 30
0.000000
 70
0
 42
-0.00974887
  0
VERTEX
  8
PEC
 39
0
 10
-15.665558
 20
-11.187171
 30
0.000000
 70
0
 42
0
  0
VERTEX
  8
PEC
 39
0
 10
-11.189048
 20
-7.430933
 30
0.000000
 70
0
 42
0
  0
VERTEX
  8
PEC
 39
0
 10
-11.189048
 20
-7.430933
 30
0.000000
 70
0
 42
0
  0
VERTEX
  8
PEC
 39
0
 10
-17.757920
 20
-7.430933
 30
0.000000
 70
0
 42
0
  0
VERTEX
  8
PEC
 39
0
 10
-17.757920
 20
-7.430933
 30
0.000000
 70
0
 42
-0.00583974
  0
VERTEX
  8
PEC
 39
0
 10
-17.926637
 20
-7.014142
 30
0.000000
 70
0
 42
-0.00583974
  0
VERTEX
  8
PEC
 39
0
 10
-18.085573
 20
-6.593524
 30
0.000000
 70
0
 42
0
  0
VERTEX
  8
PEC
 39
0
 10
-10.191063
 20
-6.593524
 30
0.000000
 70
0
 42
0
  0
VERTEX
  8
PEC
 39
0
 10
-10.191063
 20
-6.593524
 30
0.000000
 70
0
 42
0
  0
VERTEX
  8
PEC
 39
0
 10
-5.617816
 20
-2.756114
 30
0.000000
 70
0
 42
0
  0
VERTEX
  8
PEC
 39
0
 10
-5.617816
 20
-2.756114
 30
0.000000
 70
0
 42
0
  0
VERTEX
  8
PEC
 39
0
 10
-19.051675
 20
-2.756114
 30
0.000000
 70
0
 42
0
  0
VERTEX
  8
PEC
 39
0
 10
-19.051675
 20
-2.756114
 30
0.000000
 70
0
 42
-0.00547877
  0
VERTEX
  8
PEC
 39
0
 10
-19.107496
 20
-2.337971
 30
0.000000
 70
0
 42
-0.00547877
  0
VERTEX
  8
PEC
 39
0
 10
-19.154140
 20
-1.918705
 30
0.000000
 70
0
 42
0
  0
VERTEX
  8
PEC
 39
0
 10
-4.142808
 20
-1.918705
 30
0.000000
 70
0
 42
0
  0
VERTEX
  8
PEC
 39
0
 10
-4.142808
 20
-1.918705
 30
0.000000
 70
0
 42
0
  0
VERTEX
  8
PEC
 39
0
 10
-4.142808
 20
1.918705
 30
0.000000
 70
0
 42
0
  0
VERTEX
  8
PEC
 39
0
 10
-4.142808
 20
1.918705
 30
0.000000
 70
0
 42
0
  0
VERTEX
  8
PEC
 39
0
 10
-19.154140
 20
1.918705
 30
0.000000
 70
0
 42
0
  0
VERTEX
  8
PEC
 39
0
 10
-19.154140
 20
1.918705
 30
0.000000
 70
0
 42
-0.00547877
  0
VERTEX
  8
PEC
 39
0
 10
-19.107496
 20
2.337971
 30
0.000000
 70
0
 42
-0.00547877
  0
VERTEX
  8
PEC
 39
0
 10
-19.051675
 20
2.756114
 30
0.000000
 70
0
 42
0
  0
VERTEX
  8
PEC
 39
0
 10
-5.617816
 20
2.756114
 30
0.000000
 70
0
 42
0
  0
VERTEX
  8
PEC
 39
0
 10
-5.617816
 20
2.756114
 30
0.000000
 70
0
 42
0
  0
VERTEX
  8
PEC
 39
0
 10
-10.191063
 20
6.593524
 30
0.000000
 70
0
 42
0
  0
VERTEX
  8
PEC
 39
0
 10
-10.191063
 20
6.593524
 30
0.000000
 70
0
 42
0
  0
VERTEX
  8
PEC
 39
0
 10
-18.085573
 20
6.593524
 30
0.000000
 70
0
 42
0
  0
VERTEX
  8
PEC
 39
0
 10
-18.085573
 20
6.593524
 30
0.000000
 70
0
 42
-0.00583974
  0
VERTEX
  8
PEC
 39
0
 10
-17.926637
 20
7.014142
 30
0.000000
 70
0
 42
-0.00583974
  0
VERTEX
  8
PEC
 39
0
 10
-17.757920
 20
7.430933
 30
0.000000
 70
0
 42
0
  0
VERTEX
  8
PEC
 39
0
 10
-11.189048
 20
7.430933
 30
0.000000
 70
0
 42
0
  0
VERTEX
  8
PEC
 39
0
 10
-11.189048
 20
7.430933
 30
0.000000
 70
0
 42
0
  0
VERTEX
  8
PEC
 39
0
 10
-15.665558
 20
11.187171
 30
0.000000
 70
0
 42
0
  0
VERTEX
  8
PEC
 39
0
 10
-15.665558
 20
11.187171
 30
0.000000
 70
0
 42
-0.00974887
  0
VERTEX
  8
PEC
 39
0
 10
-15.217525
 20
11.789378
 30
0.000000
 70
0
 42
-0.00974887
  0
VERTEX
  8
PEC
 39
0
 10
-14.746356
 20
12.373661
 30
0.000000
 70
0
 42
0
  0
VERTEX
  8
PEC
 39
0
 10
-0.300000
 20
0.251730
 30
0.000000
 70
0
 42
0
  0
VERTEX
  8
PEC
 39
0
 10
-0.300000
 20
0.251730
 30
0.000000
 70
0
 42
0
  0
VERTEX
  8
PEC
 39
0
 10
-0.300000
 20
-8.807500
 30
0.000000
 70
0
 42
0
  0
VERTEX
  8
PEC
 39
0
 10
-0.300000
 20
-8.807500
 30
0.000000
 70
0
 42
0
  0
VERTEX
  8
PEC
 39
0
 10
0.300000
 20
-8.807500
 30
0.000000
 70
0
 42
0
  0
VERTEX
  8
PEC
 39
0
 10
0.300000
 20
-8.807500
 30
0.000000
 70
0
 42
0
  0
VERTEX
  8
PEC
 39
0
 10
0.300000
 20
0.251730
 30
0.000000
 70
0
 42
0
  0
VERTEX
  8
PEC
 39
0
 10
0.300000
 20
0.251730
 30
0.000000
 70
0
 42
0
  0
VERTEX
  8
PEC
 39
0
 10
14.746356
 20
12.373661
 30
0.000000
 70
0
 42
0
  0
VERTEX
  8
PEC
 39
0
 10
14.746356
 20
12.373661
 30
0.000000
 70
0
 42
-0.00974887
  0
VERTEX
  8
PEC
 39
0
 10
15.217525
 20
11.789378
 30
0.000000
 70
0
 42
-0.00974887
  0
VERTEX
  8
PEC
 39
0
 10
15.665558
 20
11.187171
 30
0.000000
 70
0
 42
0
  0
VERTEX
  8
PEC
 39
0
 10
11.189048
 20
7.430933
 30
0.000000
 70
0
 42
0
  0
VERTEX
  8
PEC
 39
0
 10
11.189048
 20
7.430933
 30
0.000000
 70
0
 42
0
  0
VERTEX
  8
PEC
 39
0
 10
17.757920
 20
7.430933
 30
0.000000
 70
0
 42
0
  0
VERTEX
  8
PEC
 39
0
 10
17.757920
 20
7.430933
 30
0.000000
 70
0
 42
-0.00583974
  0
VERTEX
  8
PEC
 39
0
 10
17.926637
 20
7.014142
 30
0.000000
 70
0
 42
-0.00583974
  0
VERTEX
  8
PEC
 39
0
 10
18.085573
 20
6.593524
 30
0.000000
 70
0
 42
0
  0
VERTEX
  8
PEC
 39
0
 10
10.191063
 20
6.593524
 30
0.000000
 70
0
 42
0
  0
VERTEX
  8
PEC
 39
0
 10
10.191063
 20
6.593524
 30
0.000000
 70
0
 42
0
  0
VERTEX
  8
PEC
 39
0
 10
5.617816
 20
2.756114
 30
0.000000
 70
0
 42
0
  0
VERTEX
  8
PEC
 39
0
 10
5.617816
 20
2.756114
 30
0.000000
 70
0
 42
0
  0
VERTEX
  8
PEC
 39
0
 10
19.051675
 20
2.756114
 30
0.000000
 70
0
 42
0
  0
VERTEX
  8
PEC
 39
0
 10
19.051675
 20
2.756114
 30
0.000000
 70
0
 42
-0.00547877
  0
VERTEX
  8
PEC
 39
0
 10
19.107496
 20
2.337971
 30
0.000000
 70
0
 42
-0.00547877
  0
VERTEX
  8
PEC
 39
0
 10
19.154140
 20
1.918705
 30
0.000000
 70
0
 42
0
  0
VERTEX
  8
PEC
 39
0
 10
4.142808
 20
1.918705
 30
0.000000
 70
0
 42
0
  0
VERTEX
  8
PEC
 39
0
 10
4.142808
 20
1.918705
 30
0.000000
 70
0
 42
0
  0
VERTEX
  8
PEC
 39
0
 10
4.142808
 20
-1.918705
 30
0.000000
 70
0
 42
0
  0
VERTEX
  8
PEC
 39
0
 10
4.142808
 20
-1.918705
 30
0.000000
 70
0
 42
0
  0
VERTEX
  8
PEC
 39
0
 10
19.154140
 20
-1.918705
 30
0.000000
 70
0
 42
0
  0
VERTEX
  8
PEC
 39
0
 10
19.154140
 20
-1.918705
 30
0.000000
 70
0
 42
-0.00547877
  0
VERTEX
  8
PEC
 39
0
 10
19.107496
 20
-2.337971
 30
0.000000
 70
0
 42
-0.00547877
  0
VERTEX
  8
PEC
 39
0
 10
19.051675
 20
-2.756114
 30
0.000000
 70
0
 42
0
  0
VERTEX
  8
PEC
 39
0
 10
5.617816
 20
-2.756114
 30
0.000000
 70
0
 42
0
  0
VERTEX
  8
PEC
 39
0
 10
5.617816
 20
-2.756114
 30
0.000000
 70
0
 42
0
  0
VERTEX
  8
PEC
 39
0
 10
10.191063
 20
-6.593524
 30
0.000000
 70
0
 42
0
  0
VERTEX
  8
PEC
 39
0
 10
10.191063
 20
-6.593524
 30
0.000000
 70
0
 42
0
  0
VERTEX
  8
PEC
 39
0
 10
18.085573
 20
-6.593524
 30
0.000000
 70
0
 42
0
  0
VERTEX
  8
PEC
 39
0
 10
18.085573
 20
-6.593524
 30
0.000000
 70
0
 42
-0.00583974
  0
VERTEX
  8
PEC
 39
0
 10
17.926637
 20
-7.014142
 30
0.000000
 70
0
 42
-0.00583974
  0
VERTEX
  8
PEC
 39
0
 10
17.757920
 20
-7.430933
 30
0.000000
 70
0
 42
0
  0
VERTEX
  8
PEC
 39
0
 10
11.189048
 20
-7.430933
 30
0.000000
 70
0
 42
0
  0
VERTEX
  8
PEC
 39
0
 10
11.189048
 20
-7.430933
 30
0.000000
 70
0
 42
0
  0
VERTEX
  8
PEC
 39
0
 10
15.665558
 20
-11.187171
 30
0.000000
 70
0
 42
0
  0
VERTEX
  8
PEC
 39
0
 10
15.665558
 20
-11.187171
 30
0.000000
 70
0
 42
-0.00974887
  0
VERTEX
  8
PEC
 39
0
 10
15.217525
 20
-11.789378
 30
0.000000
 70
0
 42
-0.00974887
  0
VERTEX
  8
PEC
 39
0
 10
14.746356
 20
-12.373661
 30
0.000000
 70
0
 42
0
  0
VERTEX
  8
PEC
 39
0
 10
0.892500
 20
-0.748896
 30
0.000000
 70
0
 42
0
  0
VERTEX
  8
PEC
 39
0
 10
0.892500
 20
-0.748896
 30
0.000000
 70
0
 42
0
  0
VERTEX
  8
PEC
 39
0
 10
0.892500
 20
-9.400000
 30
0.000000
 70
0
 42
0
  0
VERTEX
  8
PEC
 39
0
 10
0.892500
 20
-9.400000
 30
0.000000
 70
0
 42
0
  0
VERTEX
  8
PEC
 39
0
 10
-0.892500
 20
-9.400000
 30
0.000000
 70
0
 42
0
  0
VERTEX
  8
PEC
 39
0
 10
-0.892500
 20
-9.400000
 30
0.000000
 70
0
 42
0
  0
VERTEX
  8
PEC
 39
0
 10
-0.892500
 20
-0.748896
 30
0.000000
 70
0
 42
0
  0
VERTEX
  8
PEC
 39
0
 10
-0.892500
 20
-0.748896
 30
0.000000
 70
0
 42
0
  0
VERTEX
  8
PEC
 39
0
 10
-14.746356
 20
-12.373661
 30
0.000000
 70
0
 42
0
  0
SEQEND
  8
PEC
  0
POLYLINE
  8
PEC
 66
1
 39
0
 10
0.000000
 20
0.000000
 30
0.000000
 70
1
  0
VERTEX
  8
PEC
 39
0
 10
19.908755
 20
5.093524
 30
0.000000
 70
0
 42
0.0248949
  0
VERTEX
  8
PEC
 39
0
 10
19.303899
 20
7.047125
 30
0.000000
 70
0
 42
0.0248949
  0
VERTEX
  8
PEC
 39
0
 10
18.507861
 20
8.930933
 30
0.000000
 70
0
 42
0
  0
VERTEX
  8
PEC
 39
0
 10
15.310265
 20
8.930933
 30
0.000000
 70
0
 42
0
  0
VERTEX
  8
PEC
 39
0
 10
15.310265
 20
8.930933
 30
0.000000
 70
0
 42
0
  0
VERTEX
  8
PEC
 39
0
 10
16.308250
 20
9.768343
 30
0.000000
 70
0
 42
0
  0
VERTEX
  8
PEC
 39
0
 10
16.308250
 20
9.768343
 30
0.000000
 70
0
 42
0
  0
VERTEX
  8
PEC
 39
0
 10
18.079878
 20
9.768343
 30
0.000000
 70
0
 42
0
  0
VERTEX
  8
PEC
 39
0
 10
18.079878
 20
9.768343
 30
0.000000
 70
0
 42
0.275531
  0
VERTEX
  8
PEC
 39
0
 10
0.000000
 20
20.550000
 30
0.000000
 70
0
 42
0.275531
  0
VERTEX
  8
PEC
 39
0
 10
-18.079878
 20
9.768343
 30
0.000000
 70
0
 42
0
  0
VERTEX
  8
PEC
 39
0
 10
-16.308250
 20
9.768343
 30
0.000000
 70
0
 42
0
  0
VERTEX
  8
PEC
 39
0
 10
-16.308250
 20
9.768343
 30
0.000000
 70
0
 42
0
  0
VERTEX
  8
PEC
 39
0
 10
-15.310265
 20
8.930933
 30
0.000000
 70
0
 42
0
  0
VERTEX
  8
PEC
 39
0
 10
-15.310265
 20
8.930933
 30
0.000000
 70
0
 42
0
  0
VERTEX
  8
PEC
 39
0
 10
-18.507861
 20
8.930933
 30
0.000000
 70
0
 42
0
  0
VERTEX
  8
PEC
 39
0
 10
-18.507861
 20
8.930933
 30
0.000000
 70
0
 42
0.0248949
  0
VERTEX
  8
PEC
 39
0
 10
-19.303899
 20
7.047125
 30
0.000000
 70
0
 42
0.0248949
  0
VERTEX
  8
PEC
 39
0
 10
-19.908755
 20
5.093524
 30
0.000000
 70
0
 42
0
  0
VERTEX
  8
PEC
 39
0
 10
-10.737018
 20
5.093524
 30
0.000000
 70
0
 42
0
  0
VERTEX
  8
PEC
 39
0
 10
-10.737018
 20
5.093524
 30
0.000000
 70
0
 42
0
  0
VERTEX
  8
PEC
 39
0
 10
-9.739032
 20
4.256114
 30
0.000000
 70
0
 42
0
  0
VERTEX
  8
PEC
 39
0
 10
-9.739032
 20
4.256114
 30
0.000000
 70
0
 42
0
  0
VERTEX
  8
PEC
 39
0
 10
-20.104427
 20
4.256114
 30
0.000000
 70
0
 42
0
  0
VERTEX
  8
PEC
 39
0
 10
-20.104427
 20
4.256114
 30
0.000000
 70
0
 42
0.0235348
  0
VERTEX
  8
PEC
 39
0
 10
-20.415443
 20
2.347801
 30
0.000000
 70
0
 42
0.0235348
  0
VERTEX
  8
PEC
 39
0
 10
-20.545734
 20
0.418705
 30
0.000000
 70
0
 42
0
  0
VERTEX
  8
PEC
 39
0
 10
-5.642808
 20
0.418705
 30
0.000000
 70
0
 42
0
  0
VERTEX
  8
PEC
 39
0
 10
-5.642808
 20
0.418705
 30
0.000000
 70
0
 42
0
  0
VERTEX
  8
PEC
 39
0
 10
-5.642808
 20
-0.418705
 30
0.000000
 70
0
 42
0
  0
VERTEX
  8
PEC
 39
0
 10
-5.642808
 20
-0.418705
 30
0.000000
 70
0
 42
0
  0
VERTEX
  8
PEC
 39
0
 10
-20.545734
 20
-0.418705
 30
0.000000
 70
0
 42
0
  0
VERTEX
  8
PEC
 39
0
 10
-20.545734
 20
-0.418705
 30
0.000000
 70
0
 42
0.0235348
  0
VERTEX
  8
PEC
 39
0
 10
-20.415443
 20
-2.347801
 30
0.000000
 70
0
 42
0.0235348
  0
VERTEX
  8
PEC
 39
0
 10
-20.104427
 20
-4.256114
 30
0.000000
 70
0
 42
0
  0
VERTEX
  8
PEC
 39
0
 10
-9.739032
 20
-4.256114
 30
0.000000
 70
0
 42
0
  0
VERTEX
  8
PEC
 39
0
 10
-9.739032
 20
-4.256114
 30
0.000000
 70
0
 42
0
  0
VERTEX
  8
PEC
 39
0
 10
-10.737018
 20
-5.093524
 30
0.000000
 70
0
 42
0
  0
VERTEX
  8
PEC
 39
0
 10
-10.737018
 20
-5.093524
 30
0.000000
 70
0
 42
0
  0
VERTEX
  8
PEC
 39
0
 10
-19.908755
 20
-5.093524
 30
0.000000
 70
0
 42
0
  0
VERTEX
  8
PEC
 39
0
 10
-19.908755
 20
-5.093524
 30
0.000000
 70
0
 42
0.0248949
  0
VERTEX
  8
PEC
 39
0
 10
-19.303899
 20
-7.047125
 30
0.000000
 70
0
 42
0.0248949
  0
VERTEX
  8
PEC
 39
0
 10
-18.507861
 20
-8.930933
 30
0.000000
 70
0
 42
0
  0
VERTEX
  8
PEC
 39
0
 10
-15.310265
 20
-8.930933
 30
0.000000
 70
0
 42
0
  0
VERTEX
  8
PEC
 39
0
 10
-15.310265
 20
-8.930933
 30
0.000000
 70
0
 42
0
  0
VERTEX
  8
PEC
 39
0
 10
-16.308250
 20
-9.768343
 30
0.000000
 70
0
 42
0
  0
VERTEX
  8
PEC
 39
0
 10
-16.308250
 20
-9.768343
 30
0.000000
 70
0
 42
0
  0
VERTEX
  8
PEC
 39
0
 10
-18.079878
 20
-9.768343
 30
0.000000
 70
0
 42
0
  0
VERTEX
  8
PEC
 39
0
 10
-18.079878
 20
-9.768343
 30
0.000000
 70
0
 42
0.275531
  0
VERTEX
  8
PEC
 39
0
 10
0.000000
 20
-20.550000
 30
0.000000
 70
0
 42
0.275531
  0
VERTEX
  8
PEC
 39
0
 10
18.079878
 20
-9.768343
 30
0.000000
 70
0
 42
0
  0
VERTEX
  8
PEC
 39
0
 10
16.308250
 20
-9.768343
 30
0.000000
 70
0
 42
0
  0
VERTEX
  8
PEC
 39
0
 10
16.308250
 20
-9.768343
 30
0.000000
 70
0
 42
0
  0
VERTEX
  8
PEC
 39
0
 10
15.310265
 20
-8.930933
 30
0.000000
 70
0
 42
0
  0
VERTEX
  8
PEC
 39
0
 10
15.310265
 20
-8.930933
 30
0.000000
 70
0
 42
0
  0
VERTEX
  8
PEC
 39
0
 10
18.507861
 20
-8.930933
 30
0.000000
 70
0
 42
0
  0
VERTEX
  8
PEC
 39
0
 10
18.507861
 20
-8.930933
 30
0.000000
 70
0
 42
0.0248949
  0
VERTEX
  8
PEC
 39
0
 10
19.303899
 20
-7.047125
 30
0.000000
 70
0
 42
0.0248949
  0
VERTEX
  8
PEC
 39
0
 10
19.908755
 20
-5.093524
 30
0.000000
 70
0
 42
0
  0
VERTEX
  8
PEC
 39
0
 10
10.737018
 20
-5.093524
 30
0.000000
 70
0
 42
0
  0
VERTEX
  8
PEC
 39
0
 10
10.737018
 20
-5.093524
 30
0.000000
 70
0
 42
0
  0
VERTEX
  8
PEC
 39
0
 10
9.739032
 20
-4.256114
 30
0.000000
 70
0
 42
0
  0
VERTEX
  8
PEC
 39
0
 10
9.739032
 20
-4.256114
 30
0.000000
 70
0
 42
0
  0
VERTEX
  8
PEC
 39
0
 10
20.104427
 20
-4.256114
 30
0.000000
 70
0
 42
0
  0
VERTEX
  8
PEC
 39
0
 10
20.104427
 20
-4.256114
 30
0.000000
 70
0
 42
0.0235348
  0
VERTEX
  8
PEC
 39
0
 10
20.415443
 20
-2.347801
 30
0.000000
 70
0
 42
0.0235348
  0
VERTEX
  8
PEC
 39
0
 10
20.545734
 20
-0.418705
 30
0.000000
 70
0
 42
0
  0
VERTEX
  8
PEC
 39
0
 10
5.642808
 20
-0.418705
 30
0.000000
 70
0
 42
0
  0
VERTEX
  8
PEC
 39
0
 10
5.642808
 20
-0.418705
 30
0.000000
 70
0
 42
0
  0
VERTEX
  8
PEC
 39
0
 10
5.642808
 20
0.418705
 30
0.000000
 70
0
 42
0
  0
VERTEX
  8
PEC
 39
0
 10
5.642808
 20
0.418705
 30
0.000000
 70
0
 42
0
  0
VERTEX
  8
PEC
 39
0
 10
20.545734
 20
0.418705
 30
0.000000
 70
0
 42
0
  0
VERTEX
  8
PEC
 39
0
 10
20.545734
 20
0.418705
 30
0.000000
 70
0
 42
0.0235348
  0
VERTEX
  8
PEC
 39
0
 10
20.415443
 20
2.347801
 30
0.000000
 70
0
 42
0.0235348
  0
VERTEX
  8
PEC
 39
0
 10
20.104427
 20
4.256114
 30
0.000000
 70
0
 42
0
  0
VERTEX
  8
PEC
 39
0
 10
9.739032
 20
4.256114
 30
0.000000
 70
0
 42
0
  0
VERTEX
  8
PEC
 39
0
 10
9.739032
 20
4.256114
 30
0.000000
 70
0
 42
0
  0
VERTEX
  8
PEC
 39
0
 10
10.737018
 20
5.093524
 30
0.000000
 70
0
 42
0
  0
VERTEX
  8
PEC
 39
0
 10
10.737018
 20
5.093524
 30
0.000000
 70
0
 42
0
  0
VERTEX
  8
PEC
 39
0
 10
19.908755
 20
5.093524
 30
0.000000
 70
0
 42
0
  0
SEQEND
  8
PEC
  0
CIRCLE
  8
KAPTON
 39
0
 10
0.000000
 20
0.000000
 30
0.000000
 40
20.55
  0
ENDSEC
  0
EOF
